<?xml version="1.0" encoding="utf-8"?>
<svg xmlns="http://www.w3.org/2000/svg">
<symbol id="startevent" viewBox="0 0 100 100">
  <circle cx="50" cy="50" r="45" stroke="black" stroke-width="5" fill="none"/>

</symbol>
<symbol id="requesttask" viewBox="0 0 32 32">
  <metadata id="metadata887">
    <rdf:RDF>
      <cc:Work rdf:about="">
        <dc:format>image/svg+xml</dc:format>
        <dc:type rdf:resource="http://purl.org/dc/dcmitype/StillImage"/>
        <dc:title/>
      </cc:Work>
    </rdf:RDF>
  </metadata>
  <defs id="defs885"/>
  <sodipodi:namedview pagecolor="#ffffff" bordercolor="#666666" borderopacity="1" objecttolerance="10" gridtolerance="10" guidetolerance="10" inkscape:pageopacity="0" inkscape:pageshadow="2" inkscape:window-width="1673" inkscape:window-height="993" id="namedview883" showgrid="false" inkscape:zoom="17.757495" inkscape:cx="19.757023" inkscape:cy="17.023221" inkscape:window-x="3909" inkscape:window-y="33" inkscape:window-maximized="0" inkscape:current-layer="svg881"/>
  <path d="m 30.600976,17.595343 v -3.2 l -4,-0.8 c -0.2,-1 -0.6,-1.8 -1.2,-2.8 l 2.2,-3.4999998 -2.4,-2.4 -3.4,2.2 c -0.8,-0.6 -1.8,-1 -2.6,-1.2 l -1,-4 h -3.2 l -1,4 c -0.8,0.2 -1.8,0.6 -2.6,1.2 l -3.6000029,-2.1 -2.2,2.2 2.2,3.3999998 c -0.6,1 -1,2 -1.2,2.8 l -4,1 v 3.4 l 4,0.8 c 0.2,1 0.6,1.8 1.2,2.8 l -2.2,3.4 2.4,2.4 3.4000029,-2.2 c 0.8,0.4 1.8,1 2.8,1.2 l 0.8,4 h 3.4 l 0.8,-4 c 1,-0.2 1.8,-0.6 2.8,-1.2 l 3.4,2.2 2.4,-2.4 -2.2,-3.4 c 0.4,-0.8 1,-1.8 1.2,-2.8 z m -14,3 c -2.6,0 -4.6,-2 -4.6,-4.6 0,-2.6 2,-4.6 4.6,-4.6 2.6,0 4.6,2 4.6,4.6 0,2.6 -2,4.6 -4.6,4.6 z" id="path953" style="fill:#b3b3b3"/>
  <path d="m 30.120214,13.914438 -0.640054,-3.135335 -4.079184,0.01624 c -5.929074,2.629162 -7.129344,2.343526 -1.735799,-2.5034029 L 25.120659,4.4226288 22.289116,2.5511685 19.397861,5.3867705 C 17.443448,12.526385 16.536433,11.233951 16.61038,4.7310645 L 14.830518,1.011912 11.695183,1.6519676 11.51546,5.7711543 c 3.907741,8.6908377 0.23339,4.3111987 -2.307443,1.6957958 L 5.2607282,6.1294483 3.545223,8.7250295 6.3808249,11.616286 c 10.7464181,3.657096 -0.5797578,2.159602 -0.6157025,2.983439 l -3.7191522,1.779861 0.6800587,3.331294 4.0791833,-0.01624 c 4.5955828,-1.57328 7.6288428,-2.354294 1.7357992,2.503398 l -1.4754845,3.771332 2.8315457,1.87146 2.8912554,-2.835601 c 2.065373,-6.013179 3.116898,-5.374393 2.983441,0.615702 l 1.583903,3.759156 3.331294,-0.680059 -0.01624,-4.079183 c -1.927587,-4.628946 -3.014884,-7.825026 2.503399,-1.7358 l 3.771332,1.475485 1.87146,-2.831543 -2.835602,-2.891256 c -6.648483,-2.102608 -6.920661,-3.321246 0.615701,-2.98344 z m -13.11704,5.739619 c -2.547462,0.520045 -4.907081,-1.039505 -5.427125,-3.586965 -0.520045,-2.54746 1.039506,-4.90708 3.586966,-5.427125 2.54746,-0.520044 4.907078,1.039506 5.427123,3.586966 0.520045,2.54746 -1.039504,4.907079 -3.586964,5.427124 z" id="path879" sodipodi:nodetypes="cccccccccccccccccccccccccccccccccsssss"/>

</symbol></svg>