<?xml version="1.0" encoding="utf-8" ?>
<svg xmlns="http://www.w3.org/2000/svg" xmlns:xlink="http://www.w3.org/1999/xlink" width="1024" height="1024">
	<defs>
    <linearGradient id="backgroundGradient" x1="0%" y1="0%" x2="100%" y2="100%">
		<stop offset="0%" style="stop-color:#920000;stop-opacity:1" />
		<stop offset="100%" style="stop-color:#280000;stop-opacity:1" />
		</linearGradient>
	</defs>
	<path fill="url(#backgroundGradient)" d="M0 0L1024 0L1024 1024L0 1024L0 0Z"/>
	<path fill="#EDE6E7" d="M281.042 642.245C281.182 642.228 281.323 642.213 281.463 642.195C281.696 642.164 281.929 642.126 282.162 642.097C287.235 641.453 291.474 638.663 296.44 638.193C291.901 643.082 286.677 642.426 281.722 647.567L285.071 652.567C282.535 651.173 279.99 649.916 277.861 647.926C278.065 647.441 278.28 646.961 278.474 646.472C279.137 644.802 279.936 643.669 281.042 642.245Z"/>
	<path fill="#FEFEFE" d="M623.778 770.152C628.568 769.417 634.125 769.924 639.003 769.922C648.114 769.92 657.288 769.736 666.391 769.998C675.296 770.255 684.36 771.593 693.243 772.432C700.352 773.104 707.55 773.604 714.621 774.596C719.23 775.243 723.768 776.34 728.367 777.054C733.881 777.909 739.488 778.462 744.948 779.62C753.27 781.384 761.252 784.179 769.375 786.639C780.228 789.927 791.192 792.944 801.807 796.951C814.189 801.624 825.904 807.412 837.822 813.103C844.76 816.416 856.348 819.691 861.315 825.325C864.672 829.134 864.201 832.714 863.935 837.414C860.61 843.29 855.966 847.721 849.443 849.711C834.23 846.646 818.725 836.83 804.263 830.771Q794.827 826.899 785.219 823.474Q775.611 820.049 765.853 817.079Q756.095 814.109 746.209 811.6Q736.322 809.091 726.329 807.049C706.317 803.104 686.459 801.715 666.144 800.892C659.247 800.613 652.4 799.935 645.485 799.999C639.816 800.052 634.156 800.573 628.492 800.802C621.967 801.066 615.422 800.843 608.913 801.475C596.398 802.69 583.573 805.445 571.235 807.882C565.715 808.972 560.077 809.628 554.595 810.862C533.468 815.619 512.692 821.879 491.736 827.277C471.967 832.369 451.913 837.165 431.84 840.867C426.102 841.925 420.304 842.556 414.553 843.513C405.782 844.972 397.245 846.605 388.389 847.594C384.948 847.752 381.387 848.515 377.951 848.915C370.241 849.815 361.974 850.714 354.215 850.964C325.882 851.877 296.789 850.968 268.737 846.682C263.56 845.891 258.488 844.494 253.334 843.566C233.406 839.98 214.312 835.457 195.257 828.464C186.829 825.37 178.706 821.187 170.49 817.566C163.875 814.651 156.66 812.89 150.319 809.456C146.42 807.344 142.656 804.316 141.46 799.85C140.49 796.23 140.98 792.08 143.019 788.913C146.43 783.614 152.625 781.369 158.719 782.091C166.126 782.969 173.803 787.671 180.566 790.743C186.766 793.559 192.939 796.264 199.35 798.574C215.834 804.513 232.665 808.013 249.718 811.732C263.872 814.818 278.057 818.146 292.541 819.45C298.025 819.943 303.498 819.848 308.991 820.073C318.622 820.468 328.078 821.132 337.739 820.954C353.179 820.67 368.196 819.014 383.468 817.077C390.518 816.182 397.658 815.6 404.661 814.407C409.471 813.587 414.196 812.316 418.996 811.436C429.626 809.487 440.415 807.613 450.923 805.112C484.452 797.13 517.447 787.075 551.169 779.857C561 777.753 571.36 775.587 581.359 774.517C595.41 773.014 609.912 772.831 623.778 770.152Z"/>
	<path fill="#FEFEFE" d="M651.32 691.202C657.144 690.358 664.257 692.388 670.162 692.734C687.352 693.744 704.586 693.669 721.758 695.33C729.752 696.103 738.501 697.397 746.263 699.45C753.497 701.363 760.577 703.983 767.77 706.066C782.181 710.24 796.814 714.343 810.738 719.991C819.969 723.735 828.818 728.563 837.916 732.644C845.175 735.901 857.449 739.686 862.298 746.061C863.882 748.143 864.355 751.134 863.962 753.67C863.105 759.195 858.055 764.841 853.562 767.932C850.62 768.079 846.897 768.435 844.049 767.67C833.122 764.736 819.246 756.667 808.6 751.991C796.85 746.83 779.313 741.502 766.927 737.894Q756.753 734.923 746.431 732.518Q736.109 730.113 725.67 728.281Q715.232 726.449 704.707 725.195Q694.183 723.942 683.606 723.271C677.239 722.826 670.887 722.133 664.5 722.045C656.629 721.936 648.605 721.72 640.748 722.127C632.373 722.562 624.052 723.799 615.726 724.744C600.313 726.495 585.046 728.377 569.77 731.124C564.965 731.988 560.252 733.301 555.458 734.218C543.596 736.486 531.458 738.412 519.711 741.135C497.272 746.336 475.05 752.528 452.558 757.548C446.657 758.865 440.52 758.992 434.596 760.219C423.655 762.484 412.72 765.281 401.734 767.261Q381.194 770.764 360.395 772.01C342.002 772.031 323.559 772.234 305.208 770.752C300.682 770.387 296.192 769.516 291.665 769.087C284.178 768.378 276.507 768.064 269.087 766.831C256.271 764.7 243.201 760.915 230.587 757.733C209.04 752.298 188.555 743.186 168.354 734.1C162.065 731.271 155.047 728.725 149.319 724.899C145.801 722.549 143.251 719.912 141.069 716.259C140.913 714.067 141.011 711.835 141.026 709.637C141.095 709.521 141.163 709.403 141.233 709.288L141.593 708.715C142.115 707.871 142.627 707.01 143.269 706.25C147.406 701.349 153.952 699.166 160.214 700.21C169.53 701.763 186.743 712.012 196.786 715.763C212.333 721.571 229.034 726.308 245.249 729.757C250.648 730.906 256.132 731.574 261.535 732.685C275.217 735.498 289.595 739.093 303.57 739.851C316.207 740.537 328.775 741.368 341.444 740.893C354.981 740.386 368.251 738.99 381.69 737.442C388.589 736.648 395.642 736.108 402.478 734.896C413.471 732.947 424.239 729.966 435.164 727.764C446.058 725.568 457.028 723.93 467.91 721.569C508.19 712.831 548.327 702.596 588.943 695.523C609.425 691.957 630.638 693.574 651.32 691.202Z"/>
	<path fill="#FEFEFE" d="M633.06 850.232C656.468 849.566 682.428 850.71 705.626 853.716C710.177 854.306 714.684 855.344 719.209 856.117C762.556 863.526 812.221 878.454 849.606 902.332C854.993 905.772 861.4 909.798 862.688 916.567C863.43 920.469 862.125 924.497 859.811 927.647C857.037 931.422 851.754 934.36 846.952 933.205C841.772 931.958 836.513 928.495 831.78 926.071C823.555 921.858 815.284 917.576 806.884 913.724C780.944 901.827 753.204 894.425 725.298 888.753C719.898 887.655 714.474 886.245 709.008 885.534C692.65 883.406 676.004 883.291 659.548 882.9C653.205 882.75 646.898 881.642 640.558 881.602C634.525 881.564 628.513 882.526 622.491 882.783C609.082 883.354 595.89 883.62 582.551 885.5C570.755 887.162 558.888 889.862 547.214 892.247C535.977 894.542 524.746 896.622 513.581 899.292C484.775 906.18 456.272 914.176 427.285 920.346C421.193 921.642 414.914 922.111 408.764 923.09C399.852 924.507 391 926.229 382.063 927.589C377.096 928.034 372.338 929.323 367.404 929.854C355.829 931.101 343.818 931.62 332.174 931.955C323.808 932.195 315.6 931.653 307.253 931.237C300.004 930.877 292.818 931.048 285.568 930.382C270.167 928.967 254.889 925.779 239.742 922.817C220.933 919.139 201.964 915.155 183.909 908.573C174.759 905.238 154.684 897.467 147.26 892.074C144.551 890.105 142.078 887.603 140.73 884.491C139.367 881.346 139.462 877.681 140.728 874.513C142.971 868.903 148.432 866.23 153.664 864.039C170.822 869.654 186.977 877.578 204.394 882.637C223.956 888.32 243.906 892.295 263.992 895.56C273.643 897.129 283.079 898.777 292.841 899.582C301.589 900.304 310.498 900.012 319.277 900.016C336.996 900.024 354.495 899.905 372.129 897.734C379.057 896.882 386.144 895.824 392.991 894.459C398.208 893.42 403.333 891.918 408.567 890.966C414.283 889.928 420.051 889.299 425.762 888.183C430.959 887.167 436.294 886.259 441.425 884.97C445.838 883.861 450.155 882.356 454.582 881.308C463.918 879.099 473.38 877.364 482.67 874.947C495.464 871.619 508.208 868.699 521.063 865.694C531.031 863.363 540.941 860.728 551.005 858.816C556.451 857.781 562.012 857.265 567.496 856.449C589.447 853.181 610.827 850.758 633.06 850.232Z"/>
	<path fill="#FEFEFE" d="M277.861 647.926C270.345 640.653 263.252 632.647 256.171 624.936C251.926 620.312 247.406 615.979 243.323 611.199C212.24 574.815 192.891 530.638 181.662 484.463C178.729 472.402 176.068 459.851 174.703 447.505C172.399 426.668 172.722 405.986 174.426 385.121C178.175 339.209 194.702 296.332 218.308 257.144C224.491 246.878 230.839 236.753 238.223 227.291C251.791 209.903 269.107 192.622 285.919 178.372C327.304 143.291 385.584 115.771 439.131 106.731Q451.146 104.766 463.284 103.823Q475.423 102.881 487.597 102.969C494.562 102.963 501.855 102.573 508.782 103.205C578.067 109.52 641.761 134.846 694.587 180.417C707.928 191.925 720.379 204.053 731.519 217.747C753.575 244.859 772.574 275.052 785.799 307.475C788.463 314.005 790.598 320.833 792.922 327.496C798.532 343.583 803.262 359.393 805.963 376.247C808.39 391.4 809.065 406.691 809.08 422.006C809.089 431.182 809.116 440.196 808.181 449.335C803.192 498.078 784.807 546.374 757.837 587.106C752.962 594.468 747.939 603.453 741.051 609.067C730.013 605.247 724.972 601.537 712.629 601.364C715.6 595.025 720.768 589.399 724.846 583.706C728.538 578.554 731.895 573.128 735.309 567.79C745.432 551.965 756.646 531.481 763.517 514.018C771.251 494.362 777.355 470.291 779.943 449.257C781.6 435.788 782.501 422.029 781.867 408.458C781.069 391.383 777.818 374.167 773.493 357.666C761.436 311.657 740.392 273.042 711.128 235.754C678.12 193.695 626.914 161.276 576.454 144.227C557.899 137.958 530.935 132.412 511.576 130.302C504.282 129.508 496.56 129.98 489.212 129.982Q486.24 130.004 483.269 130.088Q480.298 130.172 477.33 130.319Q474.361 130.465 471.397 130.674Q468.432 130.883 465.472 131.154Q462.512 131.426 459.559 131.759Q456.606 132.092 453.66 132.487Q450.714 132.883 447.778 133.34Q444.841 133.797 441.914 134.315Q438.988 134.834 436.073 135.414Q433.158 135.994 430.256 136.635Q427.354 137.276 424.466 137.978Q421.578 138.68 418.705 139.442Q415.832 140.205 412.976 141.027Q410.12 141.85 407.282 142.732Q404.444 143.615 401.625 144.557Q398.806 145.498 396.008 146.499Q393.209 147.5 390.432 148.56Q387.656 149.619 384.902 150.736Q382.148 151.854 379.418 153.029Q376.688 154.204 373.983 155.436Q371.279 156.669 368.6 157.957Q365.922 159.246 363.272 160.591Q360.621 161.936 358 163.336Q355.378 164.736 352.786 166.191Q350.195 167.646 347.634 169.155Q345.074 170.664 342.545 172.226Q340.017 173.789 337.522 175.404Q335.027 177.019 332.567 178.686Q330.107 180.354 327.682 182.072Q325.257 183.791 322.869 185.56Q320.481 187.329 318.13 189.148Q315.78 190.967 313.468 192.835C303.335 201.099 293.197 209.387 283.987 218.684Q281.832 220.84 279.724 223.041Q277.617 225.242 275.556 227.488Q273.496 229.733 271.484 232.023Q269.472 234.312 267.51 236.644Q265.548 238.976 263.636 241.349Q261.724 243.723 259.863 246.137Q258.002 248.55 256.194 251.003Q254.385 253.456 252.629 255.948Q250.874 258.439 249.172 260.967Q247.47 263.495 245.822 266.059Q244.175 268.623 242.582 271.222Q240.99 273.821 239.454 276.453Q237.918 279.085 236.438 281.75Q234.959 284.414 233.536 287.11Q232.114 289.805 230.75 292.53Q229.386 295.256 228.08 298.01Q226.775 300.764 225.529 303.545Q224.282 306.326 223.096 309.134Q221.91 311.941 220.783 314.773Q219.657 317.605 218.592 320.46Q217.527 323.316 216.523 326.194Q215.519 329.071 214.577 331.97Q213.635 334.868 212.756 337.786Q211.876 340.704 211.059 343.64Q210.242 346.576 209.488 349.529Q208.733 352.482 208.043 355.451Q207.352 358.419 206.725 361.402Q206.098 364.384 205.535 367.379Q204.972 370.375 204.473 373.381Q203.975 376.388 203.54 379.405Q203.106 382.421 202.736 385.446Q202.367 388.472 202.062 391.504C199.881 413.583 201.084 435.074 204.327 456.943C210.792 500.546 225.735 539.566 251.327 575.573C258.36 585.469 266.399 594.929 274.161 604.269C284.152 616.292 296.896 625.956 306.828 638.103C305.582 637.469 304.39 636.708 303.187 635.996C300.913 636.632 298.678 637.441 296.44 638.193C291.474 638.663 287.235 641.453 282.162 642.097C281.929 642.126 281.696 642.164 281.463 642.195C281.323 642.213 281.182 642.228 281.042 642.245C279.936 643.669 279.137 644.802 278.474 646.472C278.28 646.961 278.065 647.441 277.861 647.926Z"/>
	<path fill="#FEFEFE" d="M364.68 637.657C338.79 626.217 315.816 603.542 296.936 582.833C293.164 578.695 289.151 574.701 285.676 570.31Q279.711 562.794 274.423 554.788Q269.135 546.782 264.563 538.346C257.259 525.027 252.139 511.182 247.407 496.78C244.859 489.022 241.939 481.15 240.056 473.215C233.68 446.357 232.793 418.783 234.849 391.343C235.271 385.704 235.504 379.921 236.372 374.331C238.496 360.66 242.332 346.953 246.251 333.685C251.371 316.349 260.792 301.625 270.506 286.61C273.688 281.691 276.007 276.151 279.38 271.386C287.332 260.152 301.077 243.708 311.573 234.752C317.136 230.005 323.129 226.211 328.91 221.798C334.995 217.154 340.852 212.344 347.148 207.969C356.41 201.534 366.865 195.657 376.819 190.339C388.149 184.286 400.437 179.644 412.653 175.724Q414.898 174.99 417.157 174.299Q419.416 173.608 421.688 172.961Q423.96 172.314 426.244 171.71Q428.528 171.107 430.823 170.547Q433.118 169.988 435.424 169.473Q437.729 168.958 440.044 168.487Q442.359 168.016 444.683 167.59Q447.006 167.164 449.337 166.782Q451.669 166.401 454.007 166.064Q456.345 165.727 458.689 165.436Q461.034 165.144 463.383 164.898Q465.732 164.651 468.086 164.45Q470.44 164.249 472.797 164.093Q475.154 163.937 477.514 163.826Q479.874 163.716 482.235 163.65Q484.596 163.585 486.959 163.565Q489.321 163.546 491.683 163.571Q494.045 163.597 496.406 163.668Q498.768 163.739 501.127 163.855Q503.487 163.971 505.843 164.133Q508.2 164.295 510.553 164.502Q512.906 164.709 515.255 164.961Q517.604 165.213 519.948 165.511Q522.291 165.808 524.629 166.15Q526.966 166.492 529.296 166.88Q531.627 167.267 533.949 167.699Q536.272 168.13 538.585 168.607Q540.899 169.083 543.203 169.604Q545.508 170.125 547.801 170.69Q550.095 171.255 552.378 171.864Q554.66 172.473 556.93 173.126Q559.201 173.779 561.458 174.475C590.162 183.21 622.485 197.56 646.433 215.884C651.843 220.022 656.59 224.998 661.695 229.495Q665.971 233.201 670.066 237.108Q674.16 241.015 678.063 245.113Q681.965 249.21 685.668 253.49Q689.37 257.77 692.864 262.222Q696.357 266.674 699.634 271.288Q702.91 275.902 705.963 280.667Q709.015 285.432 711.836 290.338Q714.657 295.244 717.24 300.279C750.879 364.297 759.624 421.175 737.936 491.1C731.508 511.823 714.86 544.539 702.168 562.108C697.106 569.113 690.944 575.586 685.227 582.068C680.865 587.013 676.097 593.357 670.221 596.454C664.308 596.807 658.188 595.864 652.224 595.968C642.587 596.137 633.414 598.898 624.158 601.307C629.048 593.952 636.235 587.336 644.866 585.13C636.733 572.695 624.083 563.5 613.69 553.09C605.342 544.728 597.96 535.403 589.808 526.847C581.477 518.104 572.291 510.074 564.401 500.919C561.376 497.409 555.641 491.542 554.905 486.894C556.176 484.617 559.518 482.86 561.327 480.895C565.235 476.65 565.47 472.665 565.322 467.253L565.838 466.756C566.549 467.738 566.132 467.328 567.073 468.003C568.058 467.2 566.329 466.221 566.763 464.923C572.423 468.549 581.995 479.596 587.196 484.849C595.599 493.336 604.304 501.555 612.564 510.176C620.77 518.741 628.456 527.929 636.417 536.73C639.56 540.206 643.075 543.312 646.28 546.731C650.075 550.777 653.477 555.124 657.14 559.278C658.494 560.814 660.903 563.915 662.957 564.036C671.019 552.07 680.474 541.172 688.222 528.985C698.367 513.027 708.972 488.635 713.994 470.264C715.557 464.546 716.468 458.646 717.599 452.831C719.071 445.262 720.436 437.503 720.278 429.76C719.395 428.973 718.622 428.545 717.453 428.363C709.034 427.055 698.578 427.998 689.979 428.03C672.771 428.094 655.435 428.187 638.242 428.796C626.692 429.205 615.352 430.036 603.754 429.988C592.73 429.943 581.628 428.255 570.541 428.061C569.353 434.619 567.565 440.603 564.93 446.74C560.426 457.228 551.767 473.259 540.715 477.715C542.625 486.703 546.227 494.907 549.264 503.523L563.402 543.817L581.583 594.666C584.254 602.102 585.98 609.846 589.418 617.013C590.539 619.349 592.509 621.208 594.29 623.054C600.543 623.316 606.833 621.414 613.028 620.65C625.242 619.143 637.758 617.896 650.047 617.287C658.062 616.889 665.989 617.557 673.996 617.807C679.532 617.98 685.095 617.796 690.623 618.12C697.776 618.539 704.926 619.574 712.088 620.096C718.168 620.539 724.409 620.643 730.446 621.371C749.435 623.662 775.691 628.993 793.83 634.682C803.285 637.647 812.658 642.019 821.823 645.808Q830.052 649.266 838.2 652.909C849.519 657.892 859.403 662.046 864.418 674.146C863.998 675.471 863.516 676.801 862.945 678.068C861.006 682.37 857.579 686.83 852.982 688.385C850.88 689.096 848.601 689.172 846.431 688.745C842.133 687.901 837.805 685.758 833.724 684.162C821.476 679.371 809.112 673.475 796.6 669.53C788.488 666.972 780.351 665.359 772.19 663.112C756.812 658.879 743.893 654.763 727.846 652.264C718.192 650.76 708.191 650.604 698.45 649.895C692.951 649.495 687.504 648.589 681.997 648.28C670.425 647.633 657.806 647.435 646.256 648.286C640.65 648.699 635.098 649.619 629.503 650.138C621.664 650.865 613.741 651.149 605.939 652.202C584.681 655.069 563.748 659.744 542.731 663.913C516.764 669.064 490.705 673.81 464.797 679.253C453.157 681.698 441.813 685.609 430.048 687.572C422.349 688.857 414.463 689.097 406.716 690.056C388.627 692.297 370.825 694.564 352.547 694.788C336.033 694.99 317.558 693.859 301.093 691.977C295.45 691.332 289.87 690.135 284.225 689.428C277.982 688.646 271.613 688.215 265.423 687.095C256.739 685.524 248.221 683.04 239.683 680.841C218.75 675.449 197.151 669.811 177.888 659.751C173.087 657.243 168.388 654.544 163.592 652.025C154.651 647.329 144.054 643.382 140.78 632.919C141.702 628.593 142.767 624.597 146.096 621.407C153.305 614.5 162.867 619.906 169.966 623.955C193.366 637.3 220.338 645.904 246.698 651.111C254.795 652.711 263.028 653.767 271.16 655.206C281.006 656.948 290.857 659.277 300.739 660.674C310.216 662.013 319.718 662.434 329.238 663.184C334.143 663.571 338.995 664.57 343.903 664.87C353.781 665.474 364.167 665.218 374.085 665.116C376.814 665.088 378.915 664.877 380.842 662.769C384.771 658.47 384.103 651.373 385.431 646.016C386.604 641.285 388.519 636.56 390.096 631.931C392.358 625.287 394.452 618.593 396.767 611.965C401.752 597.693 407.155 583.553 412.101 569.272C415.647 559.033 418.73 548.581 422.456 538.415C425.691 529.588 444.068 481.417 443.728 475.961C442.028 473.955 438.077 472.595 435.704 471.35C433.658 473.46 432.554 475.533 432.558 478.526C432.561 480.97 432.879 483.567 433.338 485.962C432.924 487.058 432.566 487.659 431.747 488.498C425.448 494.892 419.658 501.73 413.381 508.122C394.334 527.515 374.881 546.449 356.146 566.149C350.509 572.076 343.342 576.707 338.574 583.424C341.978 587.682 346.498 591.135 350.606 594.691C358.286 601.341 366.233 607.82 373.585 614.828C371.368 622.849 365.692 629.408 364.68 637.657Z"/>
	<path fill="#C8B0B0" d="M423.498 460.642C424.61 460.925 425.678 461.21 426.818 461.361L427.328 461.98C430.131 465.417 432.052 468.611 435.704 471.35C433.658 473.46 432.554 475.533 432.558 478.526C432.561 480.97 432.879 483.567 433.338 485.962C432.924 487.058 432.566 487.659 431.747 488.498C428.222 483.162 425.973 476.984 424.547 470.781C424.021 468.494 423.801 465.285 422.712 463.244C422.379 462.621 422.326 462.273 422.267 461.573L423.498 460.642Z"/>
	<path fill="#520000" d="M491.866 441.229C492.491 441.52 492.906 441.84 493.352 442.371C494.039 443.189 500.578 458.433 500.815 459.887C501.108 461.692 500.535 464.402 500.409 466.285C499.224 465.739 498.022 465.171 496.794 464.728C493.003 463.361 489.961 464.856 486.6 466.483Q483.082 469.231 479.607 472.033C482.477 461.46 486.972 451.016 491.866 441.229Z"/>
	<path fill="#520000" d="M492.265 367.187C494.607 366.91 496.984 367.246 499.316 367.529C512.913 369.18 526.923 378.366 535.194 389.079C543.069 399.28 545.394 411.67 543.725 424.33C542.903 430.562 536.075 447.096 531.163 450.823C527.922 448.052 524.357 435.334 522.176 430.743C520.427 427.061 517.837 423.976 516.032 420.352C514.257 416.787 513.19 412.895 511.375 409.345C507.297 401.368 500.658 399.328 492.755 396.834C490.833 397.356 488.927 397.904 487.069 398.625C476.492 402.727 474.346 409.885 469.522 418.91C466.87 423.872 463.666 428.552 461.436 433.737C458.762 439.955 456.991 446.481 454.215 452.697Q452.906 451.266 451.709 449.739Q450.513 448.213 449.436 446.599Q448.359 444.986 447.408 443.296Q446.457 441.605 445.638 439.847Q444.819 438.089 444.136 436.274Q443.453 434.458 442.91 432.596Q442.367 430.734 441.967 428.836Q441.568 426.938 441.314 425.015C439.63 411.918 443.478 397.728 451.7 387.364C461.5 375.012 477.01 368.843 492.265 367.187Z"/>
	<path fill="#520000" d="M506.54 193.002Q508.562 192.931 510.581 193.071C518.272 193.589 525.608 195.669 533.111 197.251C569.764 204.982 596.382 215.743 626.632 238.415C631.251 241.877 636.879 245.251 640.664 249.623C627.797 255.825 597.245 289.268 587.113 301.142C576.686 311.989 566.005 322.544 555.673 333.487C549.112 340.437 542.746 346.437 537.927 354.833L535.598 352.874C528.975 347.275 520.824 343.994 512.479 341.872C510.398 341.343 508.191 341.345 506.181 340.643C506.63 327.35 506.414 313.998 506.417 300.698C506.427 264.838 505.756 228.848 506.54 193.002Z"/>
	<path fill="#520000" d="M659.946 266.772C660.914 267.267 661.812 268.114 662.584 268.867C667.565 273.729 671.716 280.444 675.661 286.178C694.119 313 708.607 341.852 716.624 373.471C718.885 382.387 720.928 390.699 721.018 399.965L619.25 399.978L570.191 400.003C568.897 388.995 563.261 381.046 557.387 371.948C575.095 355.095 592.234 337.673 609.272 320.17C614.473 314.827 619.942 309.722 625.046 304.289C628.239 300.89 631.144 297.232 634.375 293.872C639.831 288.198 645.617 282.823 650.974 277.057C654.081 273.713 656.761 270.045 659.946 266.772Z"/>
	<path fill="#520000" d="M320.034 265.752C328.125 270.043 338.885 284.698 345.607 291.596C351.63 297.777 358.069 303.519 364.19 309.595L404.506 350.232C412.151 357.949 418.521 366.755 426.539 374.132C419.202 381.252 417.372 389.423 415.372 399.087C399.567 398.716 383.019 398.218 367.26 399.377C332.174 398.858 297.088 400.024 262 399.981C262.073 392.044 263.575 384.234 264.977 376.445C272.198 336.33 288.347 308.296 313.12 276.592C315.785 273.183 317.163 268.92 320.034 265.752Z"/>
	<path fill="#520000" d="M468.999 193.191C471.585 192.88 474.317 193.04 476.923 193.029C477.453 224.717 476.964 256.487 476.963 288.181C476.963 305.136 476.203 322.371 478.039 339.24C466.334 341.334 455.77 344.854 448.057 354.327C440.524 347.6 433.516 340.104 426.372 332.962C417.213 323.808 407.855 314.874 399.538 304.932C394.599 299.849 389.191 295.319 384.049 290.453L351.469 259.126C347.696 255.458 343.006 252.53 339.687 248.47C344.222 244.524 349.676 241.918 354.56 238.429C359.728 234.738 364.693 230.733 370.077 227.354C399.402 208.952 434.707 197.134 468.999 193.191Z"/>
	<path fill="#520000" d="M261.029 428.008C268.814 428.967 276.647 428.622 284.472 428.791C292.653 428.968 300.875 429.467 309.053 429.465C319.714 429.463 330.39 428.955 341.065 428.944C356.945 428.926 372.735 430.574 388.618 429.493C392.694 429.216 411.358 427.429 413.636 430.092C415.688 432.492 416.283 438.357 417.308 441.388C419.647 448.306 424.239 454.483 426.818 461.361C425.678 461.21 424.61 460.925 423.498 460.642C423.217 460.652 422.935 460.65 422.654 460.671C419.312 460.917 413.321 466.71 410.783 468.995C404.738 474.439 399.098 480.492 393.338 486.242L361.429 518.179L339.447 540.185C334.962 544.678 330.19 549.082 326.17 554.001C324.508 556.033 319.111 564.179 317.02 564.621C316.391 564.754 315.623 564.267 315.184 563.933C311.009 560.751 305.078 550.241 301.958 545.557C281.142 514.311 271.635 494.01 265.006 456.625C263.629 448.856 261.983 441.416 261.269 433.515C261.102 431.667 260.977 429.865 261.029 428.008Z"/>
	<path fill="#520000" d="M473.114 483.69C477.206 484.66 479.954 487.524 484.402 488.049C489.891 488.697 504.981 490.365 509.214 486.596C509.443 486.392 509.66 486.176 509.884 485.966L510.646 486.088C518.639 495.265 532.36 539.895 537.21 553.625C546.116 578.834 554.356 604.715 565.23 629.129C564.162 629.882 563.073 630.706 561.762 630.962C552.506 632.77 542.724 633.209 533.366 634.476C527.433 635.279 521.621 636.811 515.691 637.643C508.501 638.653 501.417 639.334 494.383 641.243C483.556 643.62 472.605 645.766 461.854 648.466C446.437 652.337 430.187 657.187 414.243 658.148C416.131 647.743 418.688 637.806 422.294 627.866C424.432 621.971 427.008 616.154 428.862 610.167C431.062 603.065 432.491 595.71 434.815 588.648C442.462 565.414 451.61 542.564 459.978 519.58C464.367 507.526 467.568 495.367 473.114 483.69Z"/>
	<path fill="#FEFEFE" d="M479.847 500.277C481.045 501.419 481.912 502.943 482.824 504.321C483.543 504.434 484.262 504.531 484.983 504.637C490.773 505.491 503.089 504.414 507.439 506.853C508.947 514.067 506.61 524.44 506.469 532.051C506.214 545.75 507.128 627.598 504.104 634.743C496.194 633.297 486.275 633.488 478.732 636.25C477.494 629.55 477.97 622.31 477.963 615.506L477.945 586.53L477.959 539.832C477.969 527.022 477.034 512.816 479.847 500.277Z"/>
</svg>
