<?xml version="1.0" encoding="utf-8"?>
<svg xmlns="http://www.w3.org/2000/svg">
<symbol id="workflow"><defs><linearGradient id="a" x1="0%" x2="100%" y1="0%" y2="100%"><stop offset="0%" style="stop-color:#920000;stop-opacity:1"/><stop offset="100%" style="stop-color:#280000;stop-opacity:1"/></linearGradient></defs><path fill="url(#a)" d="M0 0h1024v1024H0z"/><path fill="#EDE6E7" d="m281.042 642.245.421-.05c.233-.031.466-.069.699-.098 5.073-.644 9.312-3.434 14.278-3.904-4.539 4.889-9.763 4.233-14.718 9.374l3.349 5c-2.536-1.394-5.081-2.651-7.21-4.641.204-.485.419-.965.613-1.454.663-1.67 1.462-2.803 2.568-4.227"/><path fill="#FEFEFE" d="M623.778 770.152c4.79-.735 10.347-.228 15.225-.23 9.111-.002 18.285-.186 27.388.076 8.905.257 17.969 1.595 26.852 2.434 7.109.672 14.307 1.172 21.378 2.164 4.609.647 9.147 1.744 13.746 2.458 5.514.855 11.121 1.408 16.581 2.566 8.322 1.764 16.304 4.559 24.427 7.019 10.853 3.288 21.817 6.305 32.432 10.312 12.382 4.673 24.097 10.461 36.015 16.152 6.938 3.313 18.526 6.588 23.493 12.222 3.357 3.809 2.886 7.389 2.62 12.089-3.325 5.876-7.969 10.307-14.492 12.297-15.213-3.065-30.718-12.881-45.18-18.94q-9.436-3.872-19.044-7.297t-19.366-6.395-19.644-5.479-19.88-4.551c-20.012-3.945-39.87-5.334-60.185-6.157-6.897-.279-13.744-.957-20.659-.893-5.669.053-11.329.574-16.993.803-6.525.264-13.07.041-19.579.673-12.515 1.215-25.34 3.97-37.678 6.407-5.52 1.09-11.158 1.746-16.64 2.98-21.127 4.757-41.903 11.017-62.859 16.415-19.769 5.092-39.823 9.888-59.896 13.59-5.738 1.058-11.536 1.689-17.287 2.646-8.771 1.459-17.308 3.092-26.164 4.081-3.441.158-7.002.921-10.438 1.321-7.71.9-15.977 1.799-23.736 2.049-28.333.913-57.426.004-85.478-4.282-5.177-.791-10.249-2.188-15.403-3.116-19.928-3.586-39.022-8.109-58.077-15.102-8.428-3.094-16.551-7.277-24.767-10.898-6.615-2.915-13.83-4.676-20.171-8.11-3.899-2.112-7.663-5.14-8.859-9.606-.97-3.62-.48-7.77 1.559-10.937 3.411-5.299 9.606-7.544 15.7-6.822 7.407.878 15.084 5.58 21.847 8.652 6.2 2.816 12.373 5.521 18.784 7.831 16.484 5.939 33.315 9.439 50.368 13.158 14.154 3.086 28.339 6.414 42.823 7.718 5.484.493 10.957.398 16.45.623 9.631.395 19.087 1.059 28.748.881 15.44-.284 30.457-1.94 45.729-3.877 7.05-.895 14.19-1.477 21.193-2.67 4.81-.82 9.535-2.091 14.335-2.971 10.63-1.949 21.419-3.823 31.927-6.324 33.529-7.982 66.524-18.037 100.246-25.255 9.831-2.104 20.191-4.27 30.19-5.34 14.051-1.503 28.553-1.686 42.419-4.365"/><path fill="#FEFEFE" d="M651.32 691.202c5.824-.844 12.937 1.186 18.842 1.532 17.19 1.01 34.424.935 51.596 2.596 7.994.773 16.743 2.067 24.505 4.12 7.234 1.913 14.314 4.533 21.507 6.616 14.411 4.174 29.044 8.277 42.968 13.925 9.231 3.744 18.08 8.572 27.178 12.653 7.259 3.257 19.533 7.042 24.382 13.417 1.584 2.082 2.057 5.073 1.664 7.609-.857 5.525-5.907 11.171-10.4 14.262-2.942.147-6.665.503-9.513-.262-10.927-2.934-24.803-11.003-35.449-15.679-11.75-5.161-29.287-10.489-41.673-14.097q-10.174-2.971-20.496-5.376t-20.761-4.237-20.963-3.086-21.101-1.924c-6.367-.445-12.719-1.138-19.106-1.226-7.871-.109-15.895-.325-23.752.082-8.375.435-16.696 1.672-25.022 2.617-15.413 1.751-30.68 3.633-45.956 6.38-4.805.864-9.518 2.177-14.312 3.094-11.862 2.268-24 4.194-35.747 6.917-22.439 5.201-44.661 11.393-67.153 16.413-5.901 1.317-12.038 1.444-17.962 2.671-10.941 2.265-21.876 5.062-32.862 7.042q-20.54 3.503-41.339 4.749c-18.393.021-36.836.224-55.187-1.258-4.526-.365-9.016-1.236-13.543-1.665-7.487-.709-15.158-1.023-22.578-2.256-12.816-2.131-25.886-5.916-38.5-9.098-21.547-5.435-42.032-14.547-62.233-23.633-6.289-2.829-13.307-5.375-19.035-9.201-3.518-2.35-6.068-4.987-8.25-8.64-.156-2.192-.058-4.424-.043-6.622l.207-.349.36-.573c.522-.844 1.034-1.705 1.676-2.465 4.137-4.901 10.683-7.084 16.945-6.04 9.316 1.553 26.529 11.802 36.572 15.553 15.547 5.808 32.248 10.545 48.463 13.994 5.399 1.149 10.883 1.817 16.286 2.928 13.682 2.813 28.06 6.408 42.035 7.166 12.637.686 25.205 1.517 37.874 1.042 13.537-.507 26.807-1.903 40.246-3.451 6.899-.794 13.952-1.334 20.788-2.546 10.993-1.949 21.761-4.93 32.686-7.132 10.894-2.196 21.864-3.834 32.746-6.195 40.28-8.738 80.417-18.973 121.033-26.046 20.482-3.566 41.695-1.949 62.377-4.321m-18.26 159.03c23.408-.666 49.368.478 72.566 3.484 4.551.59 9.058 1.628 13.583 2.401 43.347 7.409 93.012 22.337 130.397 46.215 5.387 3.44 11.794 7.466 13.082 14.235.742 3.902-.563 7.93-2.877 11.08-2.774 3.775-8.057 6.713-12.859 5.558-5.18-1.247-10.439-4.71-15.172-7.134-8.225-4.213-16.496-8.495-24.896-12.347-25.94-11.897-53.68-19.299-81.586-24.971-5.4-1.098-10.824-2.508-16.29-3.219-16.358-2.128-33.004-2.243-49.46-2.634-6.343-.15-12.65-1.258-18.99-1.298-6.033-.038-12.045.924-18.067 1.181-13.409.571-26.601.837-39.94 2.717-11.796 1.662-23.663 4.362-35.337 6.747-11.237 2.295-22.468 4.375-33.633 7.045-28.806 6.888-57.309 14.884-86.296 21.054-6.092 1.296-12.371 1.765-18.521 2.744-8.912 1.417-17.764 3.139-26.701 4.499-4.967.445-9.725 1.734-14.659 2.265-11.575 1.247-23.586 1.766-35.23 2.101-8.366.24-16.574-.302-24.921-.718-7.249-.36-14.435-.189-21.685-.855-15.401-1.415-30.679-4.603-45.826-7.565-18.809-3.678-37.778-7.662-55.833-14.244-9.15-3.335-29.225-11.106-36.649-16.499-2.709-1.969-5.182-4.471-6.53-7.583-1.363-3.145-1.268-6.81-.002-9.978 2.243-5.61 7.704-8.283 12.936-10.474 17.158 5.615 33.313 13.539 50.73 18.598 19.562 5.683 39.512 9.658 59.598 12.923 9.651 1.569 19.087 3.217 28.849 4.022 8.748.722 17.657.43 26.436.434 17.719.008 35.218-.111 52.852-2.282 6.928-.852 14.015-1.91 20.862-3.275 5.217-1.039 10.342-2.541 15.576-3.493 5.716-1.038 11.484-1.667 17.195-2.783 5.197-1.016 10.532-1.924 15.663-3.213 4.413-1.109 8.73-2.614 13.157-3.662 9.336-2.209 18.798-3.944 28.088-6.361 12.794-3.328 25.538-6.248 38.393-9.253 9.968-2.331 19.878-4.966 29.942-6.878 5.446-1.035 11.007-1.551 16.491-2.367 21.951-3.268 43.331-5.691 65.564-6.217M277.861 647.926c-7.516-7.273-14.609-15.279-21.69-22.99-4.245-4.624-8.765-8.957-12.848-13.737-31.083-36.384-50.432-80.561-61.661-126.736-2.933-12.061-5.594-24.612-6.959-36.958-2.304-20.837-1.981-41.519-.277-62.384 3.749-45.912 20.276-88.789 43.882-127.977 6.183-10.266 12.531-20.391 19.915-29.853 13.568-17.388 30.884-34.669 47.696-48.919 41.385-35.081 99.665-62.601 153.212-71.641q12.015-1.965 24.153-2.908 12.139-.942 24.313-.854c6.965-.006 14.258-.396 21.185.236 69.285 6.315 132.979 31.641 185.805 77.212 13.341 11.508 25.792 23.636 36.932 37.33 22.056 27.112 41.055 57.305 54.28 89.728 2.664 6.53 4.799 13.358 7.123 20.021 5.61 16.087 10.34 31.897 13.041 48.751 2.427 15.153 3.102 30.444 3.117 45.759.009 9.176.036 18.19-.899 27.329-4.989 48.743-23.374 97.039-50.344 137.771-4.875 7.362-9.898 16.347-16.786 21.961-11.038-3.82-16.079-7.53-28.422-7.703 2.971-6.339 8.139-11.965 12.217-17.658 3.692-5.152 7.049-10.578 10.463-15.916 10.123-15.825 21.337-36.309 28.208-53.772 7.734-19.656 13.838-43.727 16.426-64.761 1.657-13.469 2.558-27.228 1.924-40.799-.798-17.075-4.049-34.291-8.374-50.792-12.057-46.009-33.101-84.624-62.365-121.912-33.008-42.059-84.214-74.478-134.674-91.527-18.555-6.269-45.519-11.815-64.878-13.925-7.294-.794-15.016-.322-22.364-.32q-2.972.022-5.943.106t-5.939.231q-2.969.146-5.933.355t-5.925.48q-2.96.272-5.913.605t-5.899.728-5.882.853q-2.937.457-5.864.975-2.926.519-5.841 1.099t-5.817 1.221-5.79 1.343-5.761 1.464-5.729 1.585-5.694 1.705-5.657 1.825q-2.819.941-5.617 1.942t-5.576 2.061q-2.776 1.059-5.53 2.176t-5.484 2.293q-2.73 1.175-5.435 2.407-2.704 1.233-5.383 2.521-2.678 1.289-5.328 2.634T358 163.336t-5.214 2.855q-2.591 1.455-5.152 2.964t-5.089 3.071-5.023 3.178-4.955 3.282q-2.46 1.668-4.885 3.386t-4.813 3.488q-2.388 1.769-4.739 3.588t-4.662 3.687c-10.133 8.264-20.271 16.552-29.481 25.849q-2.155 2.156-4.263 4.357t-4.168 4.447q-2.06 2.245-4.072 4.535t-3.974 4.621-3.874 4.705-3.773 4.788q-1.861 2.413-3.669 4.866t-3.565 4.945q-1.755 2.491-3.457 5.019t-3.35 5.092q-1.647 2.564-3.24 5.163-1.592 2.599-3.128 5.231t-3.016 5.297q-1.479 2.664-2.902 5.36-1.422 2.695-2.786 5.42t-2.67 5.48-2.551 5.535-2.433 5.589-2.313 5.639-2.191 5.687-2.069 5.734q-1.004 2.877-1.946 5.776t-1.821 5.816q-.88 2.918-1.697 5.854t-1.571 5.889q-.755 2.953-1.445 5.922t-1.318 5.951q-.627 2.982-1.19 5.977t-1.062 6.002q-.498 3.007-.933 6.024-.434 3.016-.804 6.041-.369 3.026-.674 6.058c-2.181 22.079-.978 43.57 2.265 65.439 6.465 43.603 21.408 82.623 47 118.63 7.033 9.896 15.072 19.356 22.834 28.696 9.991 12.023 22.735 21.687 32.667 33.834-1.246-.634-2.438-1.395-3.641-2.107-2.274.636-4.509 1.445-6.747 2.197-4.966.47-9.205 3.26-14.278 3.904-.233.029-.466.067-.699.098q-.21.026-.421.05c-1.106 1.424-1.905 2.557-2.568 4.227-.194.489-.409.969-.613 1.454"/><path fill="#FEFEFE" d="M364.68 637.657c-25.89-11.44-48.864-34.115-67.744-54.824-3.772-4.138-7.785-8.132-11.26-12.523q-5.965-7.516-11.253-15.522t-9.86-16.442c-7.304-13.319-12.424-27.164-17.156-41.566-2.548-7.758-5.468-15.63-7.351-23.565-6.376-26.858-7.263-54.432-5.207-81.872.422-5.639.655-11.422 1.523-17.012 2.124-13.671 5.96-27.378 9.879-40.646 5.12-17.336 14.541-32.06 24.255-47.075 3.182-4.919 5.501-10.459 8.874-15.224 7.952-11.234 21.697-27.678 32.193-36.634 5.563-4.747 11.556-8.541 17.337-12.954 6.085-4.644 11.942-9.454 18.238-13.829 9.262-6.435 19.717-12.312 29.671-17.63 11.33-6.053 23.618-10.695 35.834-14.615q2.245-.734 4.504-1.425t4.531-1.338 4.556-1.251 4.579-1.163 4.601-1.074 4.62-.986 4.639-.897q2.323-.426 4.654-.808 2.332-.381 4.67-.718t4.682-.628q2.345-.292 4.694-.538t4.703-.448q2.354-.201 4.711-.357t4.717-.267 4.721-.176 4.724-.085q2.362-.019 4.724.006t4.723.097q2.362.071 4.721.187t4.716.278 4.71.369 4.702.459 4.693.55 4.681.639 4.667.73q2.331.387 4.653.819 2.323.431 4.636.908 2.314.476 4.618.997t4.598 1.086 4.577 1.174 4.552 1.262q2.271.653 4.528 1.349c28.704 8.735 61.027 23.085 84.975 41.409 5.41 4.138 10.157 9.114 15.262 13.611q4.276 3.706 8.371 7.613 4.094 3.907 7.997 8.005 3.902 4.097 7.605 8.377 3.702 4.28 7.196 8.732t6.77 9.066 6.329 9.379 5.873 9.671 5.404 9.941c33.639 64.018 42.384 120.896 20.696 190.821-6.428 20.723-23.076 53.439-35.768 71.008-5.062 7.005-11.224 13.478-16.941 19.96-4.362 4.945-9.13 11.289-15.006 14.386-5.913.353-12.033-.59-17.997-.486-9.637.169-18.81 2.93-28.066 5.339 4.89-7.355 12.077-13.971 20.708-16.177-8.133-12.435-20.783-21.63-31.176-32.04-8.348-8.362-15.73-17.687-23.882-26.243-8.331-8.743-17.517-16.773-25.407-25.928-3.025-3.51-8.76-9.377-9.496-14.025 1.271-2.277 4.613-4.034 6.422-5.999 3.908-4.245 4.143-8.23 3.995-13.642l.516-.497c.711.982.294.572 1.235 1.247.985-.803-.744-1.782-.31-3.08 5.66 3.626 15.232 14.673 20.433 19.926 8.403 8.487 17.108 16.706 25.368 25.327 8.206 8.565 15.892 17.753 23.853 26.554 3.143 3.476 6.658 6.582 9.863 10.001 3.795 4.046 7.197 8.393 10.86 12.547 1.354 1.536 3.763 4.637 5.817 4.758 8.062-11.966 17.517-22.864 25.265-35.051 10.145-15.958 20.75-40.35 25.772-58.721 1.563-5.718 2.474-11.618 3.605-17.433 1.472-7.569 2.837-15.328 2.679-23.071-.883-.787-1.656-1.215-2.825-1.397-8.419-1.308-18.875-.365-27.474-.333-17.208.064-34.544.157-51.737.766-11.55.409-22.89 1.24-34.488 1.192-11.024-.045-22.126-1.733-33.213-1.927-1.188 6.558-2.976 12.542-5.611 18.679-4.504 10.488-13.163 26.519-24.215 30.975 1.91 8.988 5.512 17.192 8.549 25.808l14.138 40.294 18.181 50.849c2.671 7.436 4.397 15.18 7.835 22.347 1.121 2.336 3.091 4.195 4.872 6.041 6.253.262 12.543-1.64 18.738-2.404 12.214-1.507 24.73-2.754 37.019-3.363 8.015-.398 15.942.27 23.949.52 5.536.173 11.099-.011 16.627.313 7.153.419 14.303 1.454 21.465 1.976 6.08.443 12.321.547 18.358 1.275 18.989 2.291 45.245 7.622 63.384 13.311 9.455 2.965 18.828 7.337 27.993 11.126q8.229 3.458 16.377 7.101c11.319 4.983 21.203 9.137 26.218 21.237a36 36 0 0 1-1.473 3.922c-1.939 4.302-5.366 8.762-9.963 10.317-2.102.711-4.381.787-6.551.36-4.298-.844-8.626-2.987-12.707-4.583-12.248-4.791-24.612-10.687-37.124-14.632-8.112-2.558-16.249-4.171-24.41-6.418-15.378-4.233-28.297-8.349-44.344-10.848-9.654-1.504-19.655-1.66-29.396-2.369-5.499-.4-10.946-1.306-16.453-1.615-11.572-.647-24.191-.845-35.741.006-5.606.413-11.158 1.333-16.753 1.852-7.839.727-15.762 1.011-23.564 2.064-21.258 2.867-42.191 7.542-63.208 11.711-25.967 5.151-52.026 9.897-77.934 15.34-11.64 2.445-22.984 6.356-34.749 8.319-7.699 1.285-15.585 1.525-23.332 2.484-18.089 2.241-35.891 4.508-54.169 4.732-16.514.202-34.989-.929-51.454-2.811-5.643-.645-11.223-1.842-16.868-2.549-6.243-.782-12.612-1.213-18.802-2.333-8.684-1.571-17.202-4.055-25.74-6.254-20.933-5.392-42.532-11.03-61.795-21.09-4.801-2.508-9.5-5.207-14.296-7.726-8.941-4.696-19.538-8.643-22.812-19.106.922-4.326 1.987-8.322 5.316-11.512 7.209-6.907 16.771-1.501 23.87 2.548 23.4 13.345 50.372 21.949 76.732 27.156 8.097 1.6 16.33 2.656 24.462 4.095 9.846 1.742 19.697 4.071 29.579 5.468 9.477 1.339 18.979 1.76 28.499 2.51 4.905.387 9.757 1.386 14.665 1.686 9.878.604 20.264.348 30.182.246 2.729-.028 4.83-.239 6.757-2.347 3.929-4.299 3.261-11.396 4.589-16.753 1.173-4.731 3.088-9.456 4.665-14.085 2.262-6.644 4.356-13.338 6.671-19.966 4.985-14.272 10.388-28.412 15.334-42.693 3.546-10.239 6.629-20.691 10.355-30.857 3.235-8.827 21.612-56.998 21.272-62.454-1.7-2.006-5.651-3.366-8.024-4.611-2.046 2.11-3.15 4.183-3.146 7.176.003 2.444.321 5.041.78 7.436-.414 1.096-.772 1.697-1.591 2.536-6.299 6.394-12.089 13.232-18.366 19.624-19.047 19.393-38.5 38.327-57.235 58.027-5.637 5.927-12.804 10.558-17.572 17.275 3.404 4.258 7.924 7.711 12.032 11.267 7.68 6.65 15.627 13.129 22.979 20.137-2.217 8.021-7.893 14.58-8.905 22.829"/><path fill="#C8B0B0" d="M423.498 460.642c1.112.283 2.18.568 3.32.719l.51.619c2.803 3.437 4.724 6.631 8.376 9.37-2.046 2.11-3.15 4.183-3.146 7.176.003 2.444.321 5.041.78 7.436-.414 1.096-.772 1.697-1.591 2.536-3.525-5.336-5.774-11.514-7.2-17.717-.526-2.287-.746-5.496-1.835-7.537-.333-.623-.386-.971-.445-1.671z"/><path fill="#520000" d="M491.866 441.229c.625.291 1.04.611 1.486 1.142.687.818 7.226 16.062 7.463 17.516.293 1.805-.28 4.515-.406 6.398-1.185-.546-2.387-1.114-3.615-1.557-3.791-1.367-6.833.128-10.194 1.755q-3.518 2.748-6.993 5.55c2.87-10.573 7.365-21.017 12.259-30.804"/><path fill="#520000" d="M492.265 367.187c2.342-.277 4.719.059 7.051.342 13.597 1.651 27.607 10.837 35.878 21.55 7.875 10.201 10.2 22.591 8.531 35.251-.822 6.232-7.65 22.766-12.562 26.493-3.241-2.771-6.806-15.489-8.987-20.08-1.749-3.682-4.339-6.767-6.144-10.391-1.775-3.565-2.842-7.457-4.657-11.007-4.078-7.977-10.717-10.017-18.62-12.511-1.922.522-3.828 1.07-5.686 1.791-10.577 4.102-12.723 11.26-17.547 20.285-2.652 4.962-5.856 9.642-8.086 14.827-2.674 6.218-4.445 12.744-7.221 18.96q-1.309-1.431-2.506-2.958-1.196-1.526-2.273-3.14-1.077-1.613-2.028-3.303-.951-1.691-1.77-3.449t-1.502-3.573q-.683-1.816-1.226-3.678t-.943-3.76-.653-3.821c-1.684-13.097 2.164-27.287 10.386-37.651 9.8-12.352 25.31-18.521 40.565-20.177m14.275-174.185q2.022-.071 4.041.069c7.691.518 15.027 2.598 22.53 4.18 36.653 7.731 63.271 18.492 93.521 41.164 4.619 3.462 10.247 6.836 14.032 11.208-12.867 6.202-43.419 39.645-53.551 51.519-10.427 10.847-21.108 21.402-31.44 32.345-6.561 6.95-12.927 12.95-17.746 21.346l-2.329-1.959c-6.623-5.599-14.774-8.88-23.119-11.002-2.081-.529-4.288-.527-6.298-1.229.449-13.293.233-26.645.236-39.945.01-35.86-.661-71.85.123-107.696m153.406 73.77c.968.495 1.866 1.342 2.638 2.095 4.981 4.862 9.132 11.577 13.077 17.311 18.458 26.822 32.946 55.674 40.963 87.293 2.261 8.916 4.304 17.228 4.394 26.494l-101.768.013-49.059.025c-1.294-11.008-6.93-18.957-12.804-28.055 17.708-16.853 34.847-34.275 51.885-51.778 5.201-5.343 10.67-10.448 15.774-15.881 3.193-3.399 6.098-7.057 9.329-10.417 5.456-5.674 11.242-11.049 16.599-16.815 3.107-3.344 5.787-7.012 8.972-10.285m-339.912-1.02c8.091 4.291 18.851 18.946 25.573 25.844 6.023 6.181 12.462 11.923 18.583 17.999l40.316 40.637c7.645 7.717 14.015 16.523 22.033 23.9-7.337 7.12-9.167 15.291-11.167 24.955-15.805-.371-32.353-.869-48.112.29-35.086-.519-70.172.647-105.26.604.073-7.937 1.575-15.747 2.977-23.536 7.221-40.115 23.37-68.149 48.143-99.853 2.665-3.409 4.043-7.672 6.914-10.84m148.965-72.561c2.586-.311 5.318-.151 7.924-.162.53 31.688.041 63.458.04 95.152 0 16.955-.76 34.19 1.076 51.059-11.705 2.094-22.269 5.614-29.982 15.087-7.533-6.727-14.541-14.223-21.685-21.365-9.159-9.154-18.517-18.088-26.834-28.03-4.939-5.083-10.347-9.613-15.489-14.479l-32.58-31.327c-3.773-3.668-8.463-6.596-11.782-10.656 4.535-3.946 9.989-6.552 14.873-10.041 5.168-3.691 10.133-7.696 15.517-11.075 29.325-18.402 64.63-30.22 98.922-34.163m-207.97 234.817c7.785.959 15.618.614 23.443.783 8.181.177 16.403.676 24.581.674 10.661-.002 21.337-.51 32.012-.521 15.88-.018 31.67 1.63 47.553.549 4.076-.277 22.74-2.064 25.018.599 2.052 2.4 2.647 8.265 3.672 11.296 2.339 6.918 6.931 13.095 9.51 19.973-1.14-.151-2.208-.436-3.32-.719-.281.01-.563.008-.844.029-3.342.246-9.333 6.039-11.871 8.324-6.045 5.444-11.685 11.497-17.445 17.247l-31.909 31.937-21.982 22.006c-4.485 4.493-9.257 8.897-13.277 13.816-1.662 2.032-7.059 10.178-9.15 10.62-.629.133-1.397-.354-1.836-.688-4.175-3.182-10.106-13.692-13.226-18.376-20.816-31.246-30.323-51.547-36.952-88.932-1.377-7.769-3.023-15.209-3.737-23.11-.167-1.848-.292-3.65-.24-5.507m212.085 55.682c4.092.97 6.84 3.834 11.288 4.359 5.489.648 20.579 2.316 24.812-1.453.229-.204.446-.42.67-.63l.762.122c7.993 9.177 21.714 53.807 26.564 67.537 8.906 25.209 17.146 51.09 28.02 75.504-1.068.753-2.157 1.577-3.468 1.833-9.256 1.808-19.038 2.247-28.396 3.514-5.933.803-11.745 2.335-17.675 3.167-7.19 1.01-14.274 1.691-21.308 3.6-10.827 2.377-21.778 4.523-32.529 7.223-15.417 3.871-31.667 8.721-47.611 9.682 1.888-10.405 4.445-20.342 8.051-30.282 2.138-5.895 4.714-11.712 6.568-17.699 2.2-7.102 3.629-14.457 5.953-21.519 7.647-23.234 16.795-46.084 25.163-69.068 4.389-12.054 7.59-24.213 13.136-35.89"/><path fill="#FEFEFE" d="M479.847 500.277c1.198 1.142 2.065 2.666 2.977 4.044.719.113 1.438.21 2.159.316 5.79.854 18.106-.223 22.456 2.216 1.508 7.214-.829 17.587-.97 25.198-.255 13.699.659 95.547-2.365 102.692-7.91-1.446-17.829-1.255-25.372 1.507-1.238-6.7-.762-13.94-.769-20.744l-.018-28.976.014-46.698c.01-12.81-.925-27.016 1.888-39.555"/>
</symbol>
<symbol id="app" viewBox="0 0 32 32"><path d="M30.601 17.595v-3.2l-4-.8c-.2-1-.6-1.8-1.2-2.8l2.2-3.5-2.4-2.4-3.4 2.2c-.8-.6-1.8-1-2.6-1.2l-1-4h-3.2l-1 4c-.8.2-1.8.6-2.6 1.2l-3.6-2.1-2.2 2.2 2.2 3.4c-.6 1-1 2-1.2 2.8l-4 1v3.4l4 .8c.2 1 .6 1.8 1.2 2.8l-2.2 3.4 2.4 2.4 3.4-2.2c.8.4 1.8 1 2.8 1.2l.8 4h3.4l.8-4c1-.2 1.8-.6 2.8-1.2l3.4 2.2 2.4-2.4-2.2-3.4c.4-.8 1-1.8 1.2-2.8zm-14 3c-2.6 0-4.6-2-4.6-4.6s2-4.6 4.6-4.6 4.6 2 4.6 4.6-2 4.6-4.6 4.6" style="fill:#b3b3b3"/><path d="m30.12 13.914-.64-3.135-4.079.016c-5.93 2.63-7.13 2.344-1.736-2.503l1.456-3.87-2.832-1.87-2.891 2.835c-1.955 7.14-2.862 5.847-2.788-.656l-1.78-3.72-3.135.641-.18 4.12c3.908 8.69.234 4.31-2.307 1.695L5.261 6.129 3.545 8.725l2.836 2.891c10.746 3.657-.58 2.16-.616 2.984l-3.719 1.78.68 3.33 4.08-.015c4.595-1.574 7.628-2.355 1.735 2.503l-1.475 3.771 2.831 1.872 2.891-2.836c2.066-6.013 3.117-5.374 2.984.616l1.584 3.76 3.331-.681-.016-4.08c-1.928-4.628-3.015-7.824 2.503-1.735l3.771 1.476 1.872-2.832-2.836-2.891c-6.648-2.103-6.92-3.322.616-2.984zm-13.117 5.74c-2.547.52-4.907-1.04-5.427-3.587s1.04-4.907 3.587-5.427 4.907 1.04 5.427 3.587-1.04 4.907-3.587 5.427"/>
</symbol>
<symbol id="compressfiletask" viewBox="0 0 512 512"><path d="M283.7 298.7V0h-85.4v298.7h-128L241 512l170.7-213.3z"/>
</symbol>
<symbol id="condition" viewBox="0 0 512 512"><path d="M283.7 298.7V0h-85.4v298.7h-128L241 512l170.7-213.3z"/>
</symbol>
<symbol id="connectto" viewBox="0 0 512 512"><path d="M283.7 298.7V0h-85.4v298.7h-128L241 512l170.7-213.3z"/>
</symbol>
<symbol id="databaseconnectiontask" viewBox="0 0 512 512"><path d="M283.7 298.7V0h-85.4v298.7h-128L241 512l170.7-213.3z"/>
</symbol>
<symbol id="databasedisconnecttask" viewBox="0 0 512 512"><path d="M283.7 298.7V0h-85.4v298.7h-128L241 512l170.7-213.3z"/>
</symbol>
<symbol id="databasequerytask" viewBox="0 0 512 512"><path d="M283.7 298.7V0h-85.4v298.7h-128L241 512l170.7-213.3z"/>
</symbol>
<symbol id="emailtask" viewBox="0 0 512 512"><path d="M283.7 298.7V0h-85.4v298.7h-128L241 512l170.7-213.3z"/>
</symbol>
<symbol id="endevent" viewBox="0 0 512 512"><path d="M283.7 298.7V0h-85.4v298.7h-128L241 512l170.7-213.3z"/>
</symbol>
<symbol id="eventtrigger" viewBox="0 0 512 512"><path d="M283.7 298.7V0h-85.4v298.7h-128L241 512l170.7-213.3z"/>
</symbol>
<symbol id="filetask" viewBox="0 0 512 512"><path d="M283.7 298.7V0h-85.4v298.7h-128L241 512l170.7-213.3z"/>
</symbol>
<symbol id="inclusivegateway" viewBox="0 0 512 512"><path d="M283.7 298.7V0h-85.4v298.7h-128L241 512l170.7-213.3z"/>
</symbol>
<symbol id="movetonode" viewBox="0 0 512 512"><path d="M283.7 298.7V0h-85.4v298.7h-128L241 512l170.7-213.3z"/>
</symbol>
<symbol id="parallelgateway" viewBox="0 0 512 512"><path d="M283.7 298.7V0h-85.4v298.7h-128L241 512l170.7-213.3z"/>
</symbol>
<symbol id="requesttask" viewBox="0 0 512 512"><path d="M283.7 298.7V0h-85.4v298.7h-128L241 512l170.7-213.3z"/>
</symbol>
<symbol id="scripttask" viewBox="0 0 512 512"><path d="M283.7 298.7V0h-85.4v298.7h-128L241 512l170.7-213.3z"/>
</symbol>
<symbol id="startevent" viewBox="0 0 512 512"><path d="M283.7 298.7V0h-85.4v298.7h-128L241 512l170.7-213.3z"/>
</symbol>
<symbol id="subprocess" viewBox="0 0 512 512"><path d="M283.7 298.7V0h-85.4v298.7h-128L241 512l170.7-213.3z"/>
</symbol></svg>